<?xml version="1.0" encoding="UTF-8"?>
<svg id="Layer_1" xmlns="http://www.w3.org/2000/svg" version="1.1" viewBox="0 0 174.94 191.94">
  <!-- Generator: Adobe Illustrator 29.7.1, SVG Export Plug-In . SVG Version: 2.1.1 Build 8)  -->
  <defs>
    <style>
      .st0 {
        fill: #009245;
      }
    </style>
  </defs>
  <g>
    <path class="st0" d="M20.07,191.71H.28v-19.35h19.79v19.35ZM2.28,189.71h15.79v-15.35H2.28v15.35Z"/>
    <rect class="st0" x="4.38" y="176.36" width="11.64" height="11.25"/>
  </g>
  <g>
    <path class="st0" d="M42.16,191.71h-19.79v-19.35h19.79v19.35ZM24.37,189.71h15.79v-15.35h-15.79v15.35Z"/>
    <rect class="st0" x="26.48" y="176.36" width="11.64" height="11.25"/>
  </g>
  <g>
    <path class="st0" d="M64.26,191.71h-19.79v-19.35h19.79v19.35ZM46.47,189.71h15.79v-15.35h-15.79v15.35Z"/>
    <rect class="st0" x="48.57" y="176.36" width="11.64" height="11.25"/>
  </g>
  <g>
    <path class="st0" d="M86.35,191.71h-19.79v-19.35h19.79v19.35ZM68.56,189.71h15.79v-15.35h-15.79v15.35Z"/>
    <rect class="st0" x="70.66" y="176.36" width="11.64" height="11.25"/>
  </g>
  <g>
    <path class="st0" d="M108.44,191.71h-19.79v-19.35h19.79v19.35ZM90.65,189.71h15.79v-15.35h-15.79v15.35Z"/>
    <rect class="st0" x="92.76" y="176.36" width="11.64" height="11.25"/>
  </g>
  <g>
    <path class="st0" d="M130.54,191.71h-19.79v-19.35h19.79v19.35ZM112.75,189.71h15.79v-15.35h-15.79v15.35Z"/>
    <rect class="st0" x="114.85" y="176.36" width="11.64" height="11.25"/>
  </g>
  <g>
    <path class="st0" d="M20.07,170.54H.28v-19.35h19.79v19.35ZM2.28,168.54h15.79v-15.35H2.28v15.35Z"/>
    <rect class="st0" x="4.38" y="155.19" width="11.64" height="11.25"/>
  </g>
  <g>
    <path class="st0" d="M64.26,170.54h-19.79v-19.35h19.79v19.35ZM46.47,168.54h15.79v-15.35h-15.79v15.35Z"/>
    <rect class="st0" x="48.57" y="155.19" width="11.64" height="11.25"/>
  </g>
  <g>
    <path class="st0" d="M86.35,170.54h-19.79v-19.35h19.79v19.35ZM68.56,168.54h15.79v-15.35h-15.79v15.35Z"/>
    <rect class="st0" x="70.66" y="155.19" width="11.64" height="11.25"/>
  </g>
  <g>
    <path class="st0" d="M108.44,170.54h-19.79v-19.35h19.79v19.35ZM90.65,168.54h15.79v-15.35h-15.79v15.35Z"/>
    <rect class="st0" x="92.76" y="155.19" width="11.64" height="11.25"/>
  </g>
  <g>
    <path class="st0" d="M130.54,170.54h-19.79v-19.35h19.79v19.35ZM112.75,168.54h15.79v-15.35h-15.79v15.35Z"/>
    <rect class="st0" x="114.85" y="155.19" width="11.64" height="11.25"/>
  </g>
  <g>
    <path class="st0" d="M20.07,148.71H.28v-19.35h19.79v19.35ZM2.28,146.71h15.79v-15.35H2.28v15.35Z"/>
    <rect class="st0" x="4.38" y="133.35" width="11.64" height="11.25"/>
  </g>
  <g>
    <path class="st0" d="M64.26,148.71h-19.79v-19.35h19.79v19.35ZM46.47,146.71h15.79v-15.35h-15.79v15.35Z"/>
    <rect class="st0" x="48.57" y="133.35" width="11.64" height="11.25"/>
  </g>
  <g>
    <path class="st0" d="M86.35,126.87h-19.79v-19.35h19.79v19.35ZM68.56,124.87h15.79v-15.35h-15.79v15.35Z"/>
    <rect class="st0" x="70.66" y="111.52" width="11.64" height="11.25"/>
  </g>
  <g>
    <path class="st0" d="M86.35,86.57h-19.79v-19.35h19.79v19.35ZM68.56,84.57h15.79v-15.35h-15.79v15.35Z"/>
    <rect class="st0" x="70.66" y="71.21" width="11.64" height="11.25"/>
  </g>
  <g>
    <path class="st0" d="M108.44,148.71h-19.79v-19.35h19.79v19.35ZM90.65,146.71h15.79v-15.35h-15.79v15.35Z"/>
    <rect class="st0" x="92.76" y="133.35" width="11.64" height="11.25"/>
  </g>
  <g>
    <path class="st0" d="M152.63,191.71h-19.79v-19.35h19.79v19.35ZM134.84,189.71h15.79v-15.35h-15.79v15.35Z"/>
    <rect class="st0" x="136.94" y="176.36" width="11.64" height="11.25"/>
  </g>
  <g>
    <path class="st0" d="M174.72,191.71h-19.79v-19.35h19.79v19.35ZM156.93,189.71h15.79v-15.35h-15.79v15.35Z"/>
    <rect class="st0" x="159.04" y="176.36" width="11.64" height="11.25"/>
  </g>
  <g>
    <path class="st0" d="M152.63,170.54h-19.79v-19.35h19.79v19.35ZM134.84,168.54h15.79v-15.35h-15.79v15.35Z"/>
    <rect class="st0" x="136.94" y="155.19" width="11.64" height="11.25"/>
  </g>
  <g>
    <path class="st0" d="M152.63,148.71h-19.79v-19.35h19.79v19.35ZM134.84,146.71h15.79v-15.35h-15.79v15.35Z"/>
    <rect class="st0" x="136.94" y="133.35" width="11.64" height="11.25"/>
  </g>
  <g>
    <path class="st0" d="M20.13,19.62H.34V.28h19.79v19.35ZM2.34,17.62h15.79V2.28H2.34v15.35Z"/>
    <rect class="st0" x="4.44" y="4.27" width="11.64" height="11.25"/>
  </g>
  <g>
    <path class="st0" d="M152.68,19.62h-19.79V.28h19.79v19.35ZM134.9,17.62h15.79V2.28h-15.79v15.35Z"/>
    <rect class="st0" x="137" y="4.27" width="11.64" height="11.25"/>
  </g>
</svg>